<svg xmlns="http://www.w3.org/2000/svg" xmlns:xlink="http://www.w3.org/1999/xlink" width="135" height="135" viewBox="0 0 196 196"><defs><filter id="Ellipse_21" width="196" height="196" x="0" y="0" filterUnits="userSpaceOnUse"><feOffset dy="3" input="SourceAlpha"/><feGaussianBlur result="blur" stdDeviation="3"/><feFlood flood-opacity=".161"/><feComposite in2="blur" operator="in"/><feComposite in="SourceGraphic"/></filter><linearGradient id="linear-gradient" x1=".5" x2=".5" y2="1" gradientUnits="objectBoundingBox"><stop offset="0" stop-color="#fbbc05" stop-opacity=".349"/><stop offset="1" stop-color="#fbbc05"/></linearGradient><filter id="ic_wb_cloudy_48px" width="138" height="98" x="25" y="39" filterUnits="userSpaceOnUse"><feOffset dy="3" input="SourceAlpha"/><feGaussianBlur result="blur-2" stdDeviation="3"/><feFlood flood-opacity=".161"/><feComposite in2="blur-2" operator="in"/><feComposite in="SourceGraphic"/></filter><filter id="Ellipse_10" width="62" height="62" x="109" y="95" filterUnits="userSpaceOnUse"><feOffset dy="3" input="SourceAlpha"/><feGaussianBlur result="blur-3" stdDeviation="3"/><feFlood flood-opacity=".161"/><feComposite in2="blur-3" operator="in"/><feComposite in="SourceGraphic"/></filter></defs><g id="Offline_Icon" data-name="Offline Icon" transform="translate(-519 -637)"><g filter="url(#Ellipse_21)" transform="matrix(1, 0, 0, 1, 519, 637)"><circle id="Ellipse_21-2" cx="89" cy="89" r="89" fill="#f80" data-name="Ellipse 21" transform="translate(9 6)"/></g><path id="Path_39" fill="url(#linear-gradient)" d="M8497.589,772.248l123.429-117.617a124.383,124.383,0,0,1,14.944,11.031,110.624,110.624,0,0,1,12.288,13.06l-99.411,137.905s-17.893-6.091-30.705-17.186S8497.589,772.248,8497.589,772.248Z" data-name="Path 39" transform="translate(-7960)"/><g filter="url(#ic_wb_cloudy_48px)" transform="matrix(1, 0, 0, 1, 519, 637)"><path id="ic_wb_cloudy_48px-2" fill="#fff" d="M96.775,38.175a37.493,37.493,0,0,0-70.025-10A30,30,0,0,0,30,88H95a24.942,24.942,0,0,0,1.775-49.825Z" data-name="ic_wb_cloudy_48px" transform="translate(34 37)"/></g><g id="Group_38" data-name="Group 38" transform="translate(4 3)"><g filter="url(#Ellipse_10)" transform="matrix(1, 0, 0, 1, 515, 634)"><circle id="Ellipse_10-2" cx="22" cy="22" r="22" fill="#191919" data-name="Ellipse 10" transform="translate(118 101)"/></g><g id="Warning_Symbol" data-name="Warning Symbol" transform="translate(643.389 744.117)"><g id="Exclamation" transform="translate(11.852 7.019)"><line id="Line_18" y2="8.503" fill="none" stroke="#ea4335" stroke-linecap="round" stroke-width="2" data-name="Line 18"/><line id="Line_19" y2=".607" fill="none" stroke="#ea4335" stroke-linecap="round" stroke-width="2" data-name="Line 19" transform="translate(0 11.141)"/></g><g id="Triangle" transform="translate(0)"><line id="Line_17" x2="23.704" fill="none" stroke="#4285f4" stroke-linecap="round" stroke-width="2" data-name="Line 17" transform="translate(0 21.933)"/><line id="Line_15" x2="11.852" y1="21.933" fill="none" stroke="#34a853" stroke-linecap="round" stroke-width="2" data-name="Line 15"/><line id="Line_16" x1="11.852" y1="21.933" fill="none" stroke="#fbbc05" stroke-linecap="round" stroke-width="2" data-name="Line 16" transform="translate(11.852)"/></g></g></g></g></svg>